:SAMPLES-PER-SECOND 30
:FULLY-SPECIFIED
:DEGREES
199
root  5.540266563 37.92066799 -1.263608895 -134.5540161 -86.20030212 132.0369873
lowerback  13.26959991 1.983800054 -2.688460112
upperback  4.890520096 2.110630035 1.403210044
thorax  -2.445120096 0.9296640158 2.664489985
lowerneck  -4.162930012 8.555809975 0.6819099784
upperneck  5.334990025 11.47210026 -1.474840045
head  2.535200119 5.675580025 -0.1754930019
lclavicle  0 -9.442270133e-015 7.951389973e-016
lhumerus  -8.233139992 -15.71590042 88.22160339
lradius  2.35140333e-031 -2.634339844e-031 131.7519989
lwrist  -1.412450015e-030 -0 10.34939957
lhand  -1.496451383e-031 -27.76390076 20.11240005
lfingers  90 7.125020027 -90
lthumb  89.89689403 5.08795885 91.16245106
rclavicle  0 -9.442270133e-015 7.951389973e-016
rhumerus  5.203820229 31.07889938 -82.59549713
rradius  -1.880974569e-031 2.988440849e-031 122.1869965
rwrist  1.412450015e-030 -1.765562519e-031 -10.97570038
rhand  -7.920061211e-032 -33.2840004 9.303460121
rfingers  -90 -7.125020027 -90
rthumb  -92.93752616 -24.25625642 -97.11982154
rfemur  -14.3178997 7.136970043 0.685413003
rtibia  -0 0 58.40179825
rfoot  -4.752930759e-032 -21.77149963 -3.113759995
rtoes  5.373923086 19.29304026 -105.8922705
lfemur  -29.37610054 4.213570118 -5.546539783
ltibia  -0 0 65.08170319
lfoot  8.851445179e-032 -4.18776989 -5.380710125
ltoes  -4.250644065 -19.5611806 -102.515957
200
root  5.520377948 38.04733397 -1.237422181 -130.9349976 -85.6835022 127.6119995
lowerback  13.47840023 2.126630068 -2.74248004
upperback  5.146349907 2.260720015 1.079169989
thorax  -2.28895998 0.9937340021 2.33156991
lowerneck  -3.999190092 8.466400146 0.9009820223
upperneck  5.729899883 11.33250046 -1.314960003
head  2.639760017 5.611690044 -0.1626230031
lclavicle  0 -9.442270133e-015 7.951389973e-016
lhumerus  -7.233270168 -16.06189919 87.63800049
lradius  2.340302011e-031 -2.644206977e-031 131.5110016
lwrist  -7.062250077e-031 -1.765562519e-031 11.02910042
lhand  -1.496451383e-031 -27.76390076 20.11240005
lfingers  90 7.125020027 -90
lthumb  89.89689403 5.08795885 91.16245106
rclavicle  0 -9.442270133e-015 7.951389973e-016
rhumerus  5.557879925 30.53840065 -82.80599976
rradius  -1.883217198e-031 2.987028125e-031 122.2300034
rwrist  7.062250077e-031 1.765562519e-031 -12.54450035
rhand  -7.920061211e-032 -33.2840004 9.303460121
rfingers  -90 -7.125020027 -90
rthumb  -92.93752616 -24.25625642 -97.11982154
rfemur  -14.24429989 7.340219975 -0.2884150147
rtibia  -0 0 59.09540176
rfoot  -4.679880729e-032 -19.40970039 -2.143150091
rtoes  5.373923086 19.29304026 -105.8922705
lfemur  -28.95170021 4.682179928 -5.947400093
ltibia  -0 0 65.22769928
lfoot  8.831122121e-032 -1.568650007 -6.096630096
ltoes  -4.250644065 -19.5611806 -102.515957
201
root  5.506222267 38.1642229 -1.210175537 -129.9160156 -85.35440063 125.9569702
lowerback  13.86530018 2.204560041 -2.396330118
upperback  5.12567997 2.38041997 0.6937929988
thorax  -2.496910095 1.059280038 1.70393002
lowerneck  -3.820709944 8.378540039 1.233850002
upperneck  6.373179913 11.17870045 -1.020609975
head  2.82427001 5.545569897 -0.1202690005
lclavicle  0 -9.442270133e-015 7.951389973e-016
lhumerus  -6.552440166 -16.61619949 86.82550049
lradius  2.332955298e-031 -2.650691158e-031 131.352005
lwrist  -7.062250077e-031 -0 11.98410034
lhand  -1.496451383e-031 -27.76390076 20.11240005
lfingers  90 7.125020027 -90
lthumb  89.89689403 5.08795885 91.16245106
rclavicle  0 -9.442270133e-015 7.951389973e-016
rhumerus  5.696040154 30.04999924 -83.28639984
rradius  -1.883894513e-031 2.986600995e-031 122.2429962
rwrist  7.062250077e-031 -1.765562519e-031 -14.30959988
rhand  -7.920061211e-032 -33.2840004 9.303460121
rfingers  -90 -7.125020027 -90
rthumb  -92.93752616 -24.25625642 -97.11982154
rfemur  -14.39939976 7.631750107 -0.9942830205
rtibia  -0 0 59.7541008
rfoot  -4.612505183e-032 -16.87439919 -1.042729974
rtoes  5.373923086 19.29304026 -105.8922705
lfemur  -28.71369934 5.192110062 -6.040669918
ltibia  -0 0 65.30290222
lfoot  8.828756589e-032 0.8378689885 -6.829569817
ltoes  -4.250644065 -19.5611806 -102.515957
202
root  5.487111234 38.26022111 -1.167097805 -130.7069702 -85.13249969 126.1110229
lowerback  14.11919975 2.367530107 -2.344520092
upperback  5.150539875 2.593519926 0.7544999719
thorax  -2.617929935 1.163930058 1.696149945
lowerneck  -3.76996994 8.286149979 1.144819975
upperneck  7.179510117 11.05510044 -0.8803009987
head  3.073410034 5.477940083 -0.04660759866
lclavicle  0 -9.442270133e-015 7.951389973e-016
lhumerus  -5.832290173 -16.80459976 86.56819916
lradius  2.323038495e-031 -2.65938643e-031 131.1380005
lwrist  -7.062250077e-031 -0 12.79450035
lhand  -1.496451383e-031 -27.76390076 20.11240005
lfingers  90 7.125020027 -90
lthumb  89.89689403 5.08795885 91.16245106
rclavicle  0 -9.442270133e-015 7.951389973e-016
rhumerus  6.145349979 29.80270004 -83.02709961
rradius  -1.875860345e-031 2.991653724e-031 122.0889969
rwrist  1.412450015e-030 -0 -16.07180023
rhand  -7.920061211e-032 -33.2840004 9.303460121
rfingers  -90 -7.125020027 -90
rthumb  -92.93752616 -24.25625642 -97.11982154
rfemur  -14.58430004 8.103139877 -1.510110021
rtibia  -0 0 60.39319992
rfoot  -4.843219072e-032 -14.46100044 0.3018949926
rtoes  5.373923086 19.29304026 -105.8922705
lfemur  -28.36260033 5.619659901 -5.955840111
ltibia  -0 0 65.3164978
lfoot  -0 2.420269966 -7.835680008
ltoes  -4.250644065 -19.5611806 -102.515957
203
root  5.458844553 38.3471121 -1.129482205 -130.4140015 -84.86119843 125.3460083
lowerback  14.10439968 2.444299936 -2.44701004
upperback  5.1730299 2.682450056 0.7979289889
thorax  -2.597120047 1.20638001 1.785449982
lowerneck  -3.817980051 8.309740067 1.023880005
upperneck  7.979169846 11.09189987 -0.798996985
head  3.345609903 5.485650063 0.02571740001
lclavicle  0 -9.442270133e-015 7.951389973e-016
lhumerus  -5.064219952 -16.65130043 86.19439697
lradius  2.312950015e-031 -2.668165337e-031 130.9210052
lwrist  -1.412450015e-030 1.765562519e-031 13.24069977
lhand  -1.496451383e-031 -27.76390076 20.11240005
lfingers  90 7.125020027 -90
lthumb  89.89689403 5.08795885 91.16245106
rclavicle  0 -9.442270133e-015 7.951389973e-016
rhumerus  6.901470184 29.68300056 -82.73750305
rradius  -1.862894032e-031 2.999744966e-031 121.8410034
rwrist  7.062250077e-031 -8.827812596e-032 -18.09790039
rhand  -7.920061211e-032 -33.2840004 9.303460121
rfingers  -90 -7.125020027 -90
rthumb  -92.93752616 -24.25625642 -97.11982154
rfemur  -14.89840031 8.637410164 -2.128329992
rtibia  -0 0 60.96340179
rfoot  -4.51828729e-032 -12.33959961 1.638679981
rtoes  5.373923086 19.29304026 -105.8922705
lfemur  -28.08869934 5.886799812 -6.004529953
ltibia  -0 0 65.27980042
lfoot  -0 2.898279905 -8.683810234
ltoes  -4.250644065 -19.5611806 -102.515957
204
root  5.425266581 38.41111191 -1.10296668 -129.90802 -84.62999725 124.4329834
lowerback  13.99860001 2.468219995 -2.57565999
upperback  5.176000118 2.703449965 0.8525760174
thorax  -2.546489954 1.215759993 1.915019989
lowerneck  -3.916160107 8.363800049 0.8831710219
upperneck  8.71350956 11.17450047 -0.7605860233
head  3.60984993 5.513000011 0.09117820114
lclavicle  0 -9.442270133e-015 7.951389973e-016
lhumerus  -4.361000061 -16.41580009 85.77420044
lradius  2.303575391e-031 -2.676263152e-031 130.7200012
lwrist  0 -0 13.5802002
lhand  -1.496451383e-031 -27.76390076 20.11240005
lfingers  90 7.125020027 -90
lthumb  89.89689403 5.08795885 91.16245106
rclavicle  0 -9.442270133e-015 7.951389973e-016
rhumerus  7.852230072 29.68569946 -82.37059784
rradius  -1.85136207e-031 3.006875874e-031 121.6210022
rwrist  1.412450015e-030 8.827812596e-032 -19.90309906
rhand  -7.920061211e-032 -33.2840004 9.303460121
rfingers  -90 -7.125020027 -90
rthumb  -92.93752616 -24.25625642 -97.11982154
rfemur  -15.15880013 9.15170002 -2.692209959
rtibia  -0 0 61.3893013
rfoot  -4.490032035e-032 -10.5656004 2.705559969
rtoes  5.373923086 19.29304026 -105.8922705
lfemur  -27.83609962 6.053269863 -6.006959915
ltibia  -0 0 65.21959686
lfoot  -0 2.598249912 -9.150230408
ltoes  -4.250644065 -19.5611806 -102.515957
205
root  5.388222341 38.44577759 -1.07165331 -129.6599731 -84.4414978 123.7230225
lowerback  13.92749977 2.544359922 -2.661429882
upperback  5.157239914 2.798890114 0.8986080289
thorax  -2.53918004 1.263569951 1.997689962
lowerneck  -3.872869968 8.341739655 0.9222670197
upperneck  9.322369576 11.14309978 -0.7482389808
head  3.817980051 5.489980221 0.1038289964
lclavicle  0 -9.442270133e-015 7.951389973e-016
lhumerus  -3.656630039 -16.29190063 85.25700378
lradius  2.294781435e-031 -2.683807408e-031 130.5319977
lwrist  -1.412450015e-030 -1.765562519e-031 14.21969986
lhand  -1.496451383e-031 -27.76390076 20.11240005
lfingers  90 7.125020027 -90
lthumb  89.89689403 5.08795885 91.16245106
rclavicle  0 -9.442270133e-015 7.951389973e-016
rhumerus  8.830909729 29.68250084 -81.95059967
rradius  -1.839486952e-031 3.014155237e-031 121.3949966
rwrist  7.062250077e-031 2.648343779e-031 -21.13240051
rhand  -7.920061211e-032 -33.2840004 9.303460121
rfingers  -90 -7.125020027 -90
rthumb  -92.93752616 -24.25625642 -97.11982154
rfemur  -15.20100021 9.741209984 -3.149909973
rtibia  -0 0 61.60910034
rfoot  -4.472393624e-032 -9.276260376 3.71833992
rtoes  5.373923086 19.29304026 -105.8922705
lfemur  -27.46649933 6.093349934 -5.963300228
ltibia  -0 0 65.12940216
lfoot  -0 2.072779894 -9.185850143
ltoes  -4.250644065 -19.5611806 -102.515957
